<svg width="18" height="18" viewBox="0 0 18 18" fill="none" xmlns="http://www.w3.org/2000/svg">
<path d="M8.24516 1.94634e-05C7.16239 1.94505e-05 6.09022 0.213287 5.08987 0.627645C4.08953 1.042 3.18059 1.64934 2.41495 2.41497C1.64932 3.1806 1.04198 4.08954 0.627625 5.08989C0.213267 6.09024 -3.44175e-08 7.16241 0 8.24518L8.24516 8.24518L8.24516 1.94634e-05Z" fill="#438BEF"/>
<path d="M8.24427 1.90462e-05C7.1615 1.90332e-05 6.08933 0.213287 5.08899 0.627645C4.08864 1.042 3.1797 1.64934 2.41406 2.41497L8.24427 8.24518L8.24427 1.90462e-05Z" fill="#98C3FF"/>
<path d="M9.69633 1.80098C9.69633 1.64064 9.82637 1.51012 9.98661 1.51577C11.5157 1.56962 13.0018 2.04806 14.2771 2.90022C15.633 3.80621 16.6898 5.09393 17.3139 6.60053C17.9379 8.10714 18.1012 9.76496 17.7831 11.3644C17.4649 12.9638 16.6796 14.4329 15.5265 15.586C14.3734 16.7391 12.9043 17.5244 11.3049 17.8425C9.70548 18.1607 8.04765 17.9974 6.54105 17.3734C5.03444 16.7493 3.74672 15.6925 2.84073 14.3366C1.98858 13.0612 1.51013 11.5752 1.45628 10.0461C1.45064 9.88585 1.58115 9.75582 1.74149 9.75582L4.04666 9.75582C4.207 9.75582 4.33616 9.8859 4.34484 10.046C4.39678 11.0041 4.70517 11.9326 5.24019 12.7333C5.82909 13.6147 6.6661 14.3016 7.6454 14.7072C8.62469 15.1129 9.70228 15.219 10.7419 15.0122C11.7815 14.8054 12.7364 14.295 13.486 13.5455C14.2355 12.7959 14.7459 11.841 14.9527 10.8014C15.1595 9.76176 15.0534 8.68418 14.6477 7.70488C14.2421 6.72559 13.5552 5.88857 12.6738 5.29968C11.8731 4.76465 10.9446 4.45627 9.98652 4.40432C9.82642 4.39564 9.69633 4.26648 9.69633 4.10614L9.69633 1.80098Z" fill="#98C3FF"/>
<path d="M16.7978 5.56641C17.7025 7.09984 18.0864 8.8849 17.8924 10.6547C17.6983 12.4245 16.9365 14.0839 15.7211 15.3848C14.5056 16.6857 12.9017 17.5583 11.1491 17.872C9.39661 18.1857 7.58961 17.9237 5.99834 17.1252L7.29264 14.5459C8.32696 15.0649 9.50151 15.2352 10.6407 15.0313C11.7798 14.8274 12.8223 14.2603 13.6124 13.4147C14.4025 12.569 14.8976 11.4904 15.0237 10.3401C15.1499 9.18972 14.9003 8.02943 14.3123 7.0327L16.7978 5.56641Z" fill="#73A3E7"/>
<path d="M16.6909 5.39022C17.6788 6.97298 18.1006 8.844 17.8875 10.6975C17.6745 12.5511 16.839 14.2776 15.5178 15.5949L13.4803 13.5512C14.3391 12.695 14.8821 11.5728 15.0206 10.368C15.1591 9.16316 14.8849 7.947 14.2428 6.91821L16.6909 5.39022Z" fill="#2069CF"/>
</svg>
