<svg width="24" height="24" viewBox="0 0 24 24" fill="none" xmlns="http://www.w3.org/2000/svg">
<path fill-rule="evenodd" clip-rule="evenodd" d="M13.808 8.44689C12.6064 8.3136 11.3937 8.3136 10.192 8.44689C9.294 8.54689 8.566 9.25489 8.46 10.1639C8.31729 11.3837 8.31729 12.616 8.46 13.8359C8.566 14.7459 9.294 15.4519 10.192 15.5529C11.384 15.6859 12.616 15.6859 13.808 15.5529C14.2482 15.5045 14.6591 15.3084 14.9736 14.9966C15.2881 14.6848 15.4878 14.2757 15.54 13.8359C15.683 12.6159 15.683 11.3839 15.54 10.1639C15.4878 9.72411 15.2881 9.31499 14.9736 9.00319C14.6591 8.6914 14.2482 8.49531 13.808 8.44689ZM10.358 9.93789C11.44 9.81789 12.56 9.81789 13.642 9.93789C13.7451 9.94927 13.8414 9.99486 13.9155 10.0674C13.9896 10.1399 14.0373 10.2351 14.051 10.3379C14.18 11.4419 14.18 12.5579 14.051 13.6619C14.0373 13.7648 13.9894 13.8602 13.9151 13.9327C13.8408 14.0052 13.7442 14.0507 13.641 14.0619C12.55 14.182 11.449 14.182 10.358 14.0619C10.2549 14.0505 10.1587 14.0049 10.0845 13.9324C10.0104 13.8599 9.96268 13.7647 9.949 13.6619C9.81979 12.5577 9.81979 11.4421 9.949 10.3379C9.96272 10.235 10.0106 10.1396 10.0849 10.0671C10.1592 9.99455 10.2558 9.94906 10.359 9.93789" fill="white"/>
<path fill-rule="evenodd" clip-rule="evenodd" d="M15.75 3C15.75 2.80109 15.671 2.61032 15.5303 2.46967C15.3897 2.32902 15.1989 2.25 15 2.25C14.8011 2.25 14.6103 2.32902 14.4697 2.46967C14.329 2.61032 14.25 2.80109 14.25 3V5.524C13.7506 5.48894 13.2505 5.4656 12.75 5.454V4C12.75 3.80109 12.671 3.61032 12.5303 3.46967C12.3897 3.32902 12.1989 3.25 12 3.25C11.8011 3.25 11.6103 3.32902 11.4697 3.46967C11.329 3.61032 11.25 3.80109 11.25 4V5.454C10.7495 5.4656 10.2494 5.48894 9.75 5.524V3C9.75 2.80109 9.67098 2.61032 9.53033 2.46967C9.38968 2.32902 9.19891 2.25 9 2.25C8.80109 2.25 8.61032 2.32902 8.46967 2.46967C8.32902 2.61032 8.25 2.80109 8.25 3V5.672C7.61071 5.78847 7.02245 6.098 6.5644 6.55891C6.10635 7.01982 5.80049 7.61 5.688 8.25H3C2.80109 8.25 2.61032 8.32902 2.46967 8.46967C2.32902 8.61032 2.25 8.80109 2.25 9C2.25 9.19891 2.32902 9.38968 2.46967 9.53033C2.61032 9.67098 2.80109 9.75 3 9.75H5.537C5.501 10.25 5.47667 10.75 5.464 11.25H4C3.80109 11.25 3.61032 11.329 3.46967 11.4697C3.32902 11.6103 3.25 11.8011 3.25 12C3.25 12.1989 3.32902 12.3897 3.46967 12.5303C3.61032 12.671 3.80109 12.75 4 12.75H5.464C5.47733 13.25 5.50167 13.75 5.537 14.25H3C2.80109 14.25 2.61032 14.329 2.46967 14.4697C2.32902 14.6103 2.25 14.8011 2.25 15C2.25 15.1989 2.32902 15.3897 2.46967 15.5303C2.61032 15.671 2.80109 15.75 3 15.75H5.688C5.80049 16.39 6.10635 16.9802 6.5644 17.4411C7.02245 17.902 7.61071 18.2115 8.25 18.328V21C8.25 21.1989 8.32902 21.3897 8.46967 21.5303C8.61032 21.671 8.80109 21.75 9 21.75C9.19891 21.75 9.38968 21.671 9.53033 21.5303C9.67098 21.3897 9.75 21.1989 9.75 21V18.476C10.2487 18.5113 10.7487 18.5347 11.25 18.546V20C11.25 20.1989 11.329 20.3897 11.4697 20.5303C11.6103 20.671 11.8011 20.75 12 20.75C12.1989 20.75 12.3897 20.671 12.5303 20.5303C12.671 20.3897 12.75 20.1989 12.75 20V18.546C13.2505 18.5344 13.7506 18.5111 14.25 18.476V21C14.25 21.1989 14.329 21.3897 14.4697 21.5303C14.6103 21.671 14.8011 21.75 15 21.75C15.1989 21.75 15.3897 21.671 15.5303 21.5303C15.671 21.3897 15.75 21.1989 15.75 21V18.328C16.3893 18.2115 16.9775 17.902 17.4356 17.4411C17.8937 16.9802 18.1995 16.39 18.312 15.75H21C21.1989 15.75 21.3897 15.671 21.5303 15.5303C21.671 15.3897 21.75 15.1989 21.75 15C21.75 14.8011 21.671 14.6103 21.5303 14.4697C21.3897 14.329 21.1989 14.25 21 14.25H18.463C18.499 13.75 18.5233 13.25 18.536 12.75H20C20.1989 12.75 20.3897 12.671 20.5303 12.5303C20.671 12.3897 20.75 12.1989 20.75 12C20.75 11.8011 20.671 11.6103 20.5303 11.4697C20.3897 11.329 20.1989 11.25 20 11.25H18.536C18.5227 10.75 18.4983 10.25 18.463 9.75H21C21.1989 9.75 21.3897 9.67098 21.5303 9.53033C21.671 9.38968 21.75 9.19891 21.75 9C21.75 8.80109 21.671 8.61032 21.5303 8.46967C21.3897 8.32902 21.1989 8.25 21 8.25H18.312C18.1995 7.61 17.8937 7.01982 17.4356 6.55891C16.9775 6.098 16.3893 5.78847 15.75 5.672V3ZM8.633 7.13C10.8708 6.88226 13.1292 6.88226 15.367 7.13C16.14 7.217 16.757 7.828 16.846 8.589C17.1107 10.8553 17.1107 13.1447 16.846 15.411C16.7985 15.7848 16.6268 16.1318 16.3584 16.3962C16.09 16.6606 15.7405 16.8271 15.366 16.869C13.1285 17.1167 10.8705 17.1167 8.633 16.869C8.25872 16.8269 7.90944 16.6603 7.64122 16.3959C7.373 16.1315 7.20141 15.7846 7.154 15.411C6.88928 13.1447 6.88928 10.8553 7.154 8.589C7.20146 8.21521 7.37319 7.86823 7.64161 7.6038C7.91003 7.33937 8.25954 7.17285 8.634 7.131" fill="white"/>
</svg>
