<svg width="24" height="24" viewBox="0 0 24 24" fill="none" xmlns="http://www.w3.org/2000/svg">
<path fill-rule="evenodd" clip-rule="evenodd" d="M21.144 5.47191L21.6377 7.31391C21.7034 7.55973 21.6995 7.819 21.6263 8.06272C21.5531 8.30643 21.4136 8.52498 21.2233 8.69391L21.1568 8.74962C20.8297 9.0048 20.5837 9.34943 20.4486 9.74169C20.3135 10.134 20.2952 10.557 20.3958 10.9595C20.4965 11.362 20.7118 11.7266 21.0156 12.0091C21.3194 12.2916 21.6987 12.4799 22.1074 12.551L22.2 12.5652C22.4589 12.5991 22.7019 12.709 22.8984 12.881C23.0948 13.053 23.2358 13.2794 23.3036 13.5316L23.8063 15.407C23.8646 15.6245 23.8795 15.8513 23.8502 16.0746C23.8208 16.2978 23.7478 16.5131 23.6353 16.7081C23.5227 16.9031 23.3729 17.074 23.1942 17.2111C23.0156 17.3482 22.8118 17.4488 22.5943 17.507L5.20713 22.1656C4.76799 22.2832 4.30014 22.2215 3.90649 21.9941C3.51284 21.7667 3.22561 21.3923 3.10798 20.9532L2.63527 19.1888C2.56507 18.9262 2.56775 18.6494 2.64303 18.3882C2.71832 18.127 2.86335 17.8913 3.06256 17.7063L3.13241 17.6463C3.4527 17.385 3.69059 17.0367 3.81743 16.6433C3.94426 16.2499 3.95464 15.8282 3.84729 15.429C3.73995 15.0298 3.51946 14.6702 3.21241 14.3935C2.90536 14.1168 2.52484 13.9347 2.1167 13.8693C1.83442 13.8238 1.57133 13.6976 1.35911 13.506C1.14688 13.3144 0.994587 13.0655 0.920556 12.7893L0.445699 11.018C0.387443 10.8006 0.372605 10.5737 0.402033 10.3505C0.43146 10.1272 0.504576 9.91199 0.617205 9.71702C0.729833 9.52205 0.879768 9.35118 1.05845 9.21416C1.23712 9.07715 1.44104 8.97667 1.65856 8.91848L19.0444 4.25991C19.2619 4.20157 19.4887 4.18665 19.712 4.21599C19.9352 4.24533 20.1505 4.31836 20.3455 4.43091C20.5405 4.54346 20.7114 4.69332 20.8485 4.87194C20.9856 5.05055 21.0861 5.25442 21.1444 5.47191M19.3594 5.73205L2.12184 10.3508C1.88398 10.4146 1.74256 10.6593 1.80641 10.8972L2.14541 12.1628C2.8785 12.3105 3.55577 12.6599 4.10095 13.1718C4.64613 13.6837 5.03756 14.3376 5.23113 15.0599C5.42473 15.7823 5.41277 16.5443 5.19659 17.2603C4.98041 17.9762 4.5686 18.6176 4.00756 19.112L4.34656 20.3776C4.41084 20.6155 4.65513 20.7569 4.89298 20.6931L22.1301 16.0743C22.368 16.0105 22.5094 15.7658 22.4456 15.5279L22.107 14.2628C21.3738 14.115 20.6965 13.7655 20.1514 13.2536C19.6062 12.7416 19.2148 12.0876 19.0213 11.3652C18.8276 10.6429 18.8395 9.88082 19.0556 9.16489C19.2717 8.44896 19.6834 7.80759 20.2444 7.31305L19.9054 6.04748C19.8903 5.99086 19.8642 5.93778 19.8285 5.89127C19.7928 5.84476 19.7484 5.80574 19.6976 5.77644C19.6469 5.74714 19.5908 5.72814 19.5327 5.72053C19.4746 5.71291 19.416 5.71682 19.3594 5.73205ZM18.8091 14.9716C18.8528 15.1347 18.8639 15.3048 18.8419 15.4722C18.8198 15.6396 18.765 15.801 18.6805 15.9473C18.5961 16.0935 18.4837 16.2216 18.3497 16.3244C18.2157 16.4271 18.0628 16.5025 17.8997 16.5462C17.7366 16.5899 17.5665 16.601 17.3991 16.5789C17.2317 16.5569 17.0703 16.502 16.9241 16.4176C16.7779 16.3331 16.6497 16.2207 16.5469 16.0867C16.4442 15.9528 16.3688 15.7999 16.3251 15.6368C16.2369 15.3074 16.2832 14.9564 16.4537 14.6611C16.6243 14.3658 16.9052 14.1504 17.2346 14.0622C17.564 13.974 17.9149 14.0203 18.2102 14.1908C18.5055 14.3614 18.7209 14.6422 18.8091 14.9716ZM17.922 11.6596C18.0102 11.989 17.964 12.34 17.7935 12.6353C17.623 12.9306 17.3422 13.1461 17.0128 13.2344C16.6834 13.3227 16.3324 13.2765 16.0371 13.1059C15.7417 12.9354 15.5262 12.6546 15.438 12.3252C15.3548 11.9975 15.4039 11.6502 15.5749 11.3586C15.7458 11.0669 16.0248 10.8543 16.3513 10.7668C16.6779 10.6793 17.0258 10.7239 17.3196 10.891C17.6135 11.0581 17.8302 11.3342 17.922 11.6596ZM17.034 8.34805C17.0777 8.51115 17.0888 8.68126 17.0668 8.84867C17.0448 9.01608 16.99 9.17751 16.9055 9.32375C16.8211 9.46998 16.7087 9.59815 16.5747 9.70094C16.4408 9.80373 16.2879 9.87913 16.1248 9.92283C15.9617 9.96654 15.7916 9.97769 15.6241 9.95565C15.4567 9.9336 15.2953 9.8788 15.1491 9.79438C15.0028 9.70995 14.8747 9.59754 14.7719 9.46358C14.6691 9.32962 14.5937 9.17672 14.55 9.01362C14.4617 8.68422 14.5079 8.33325 14.6784 8.03792C14.849 7.74259 15.1298 7.5271 15.4592 7.43884C15.7886 7.35057 16.1396 7.39678 16.4349 7.56729C16.7302 7.7378 16.9457 8.01865 17.034 8.34805ZM12.5927 2.72005L13.6864 4.28176C13.7024 4.30491 13.7177 4.32834 13.7323 4.35205L3.2687 7.15576L10.2051 2.29876C10.5776 2.03814 11.0383 1.93611 11.4859 2.01511C11.9336 2.09411 12.332 2.34768 12.5927 2.72005Z" fill="white"/>
</svg>
