<svg width="592" height="158" viewBox="0 0 592 158" fill="none" xmlns="http://www.w3.org/2000/svg">
<path d="M72.1489 -0.000182245C62.6741 -0.000182358 53.2922 1.866 44.5387 5.49182C35.7852 9.11764 27.8316 14.4321 21.1319 21.1317C14.4323 27.8314 9.11782 35.785 5.492 44.5385C1.86618 53.292 -3.01168e-07 62.674 0 72.1487L72.1489 72.1487L72.1489 -0.000182245Z" fill="#0074F8"/>
<path d="M72.1481 -0.00018512C62.6733 -0.000185233 53.2914 1.866 44.5379 5.49182C35.7844 9.11764 27.8307 14.4321 21.1311 21.1317L72.1481 72.1487L72.1481 -0.00018512Z" fill="#009BFA"/>
<path d="M84.8513 15.7501C84.8513 14.347 85.9891 13.2049 87.3913 13.2543C100.771 13.7255 113.775 17.9121 124.935 25.3689C136.8 33.2967 146.047 44.5648 151.508 57.7483C156.969 70.9318 158.398 85.4385 155.614 99.434C152.83 113.43 145.958 126.285 135.868 136.375C125.778 146.466 112.922 153.337 98.9268 156.121C84.9313 158.905 70.4246 157.476 57.2411 152.015C44.0576 146.555 32.7895 137.307 24.8617 125.442C17.4049 114.282 13.2183 101.279 12.7471 87.8985C12.6977 86.4963 13.8398 85.3585 15.2428 85.3585L35.414 85.3585C36.8171 85.3585 37.9473 86.4967 38.0233 87.8977C38.4778 96.2812 41.1763 104.406 45.858 111.413C51.0111 119.125 58.3354 125.136 66.9046 128.685C75.4739 132.235 84.9033 133.164 94.0004 131.354C103.097 129.545 111.454 125.078 118.012 118.519C124.571 111.961 129.037 103.605 130.847 94.5076C132.656 85.4105 131.728 75.9811 128.178 67.4118C124.629 58.8426 118.618 51.5183 110.906 46.3652C103.899 41.6835 95.774 38.985 87.3905 38.5305C85.9895 38.4545 84.8513 37.3243 84.8513 35.9212L84.8513 15.7501Z" fill="#0074F8"/>
<path d="M146.993 48.6992C154.909 62.1175 158.269 77.7376 156.57 93.2239C154.872 108.71 148.206 123.231 137.57 134.615C126.934 145.998 112.899 153.633 97.564 156.378C82.2285 159.124 66.4165 156.831 52.4921 149.844L63.8178 127.274C72.8687 131.816 83.1465 133.306 93.1145 131.521C103.083 129.737 112.205 124.774 119.119 117.375C126.032 109.976 130.365 100.537 131.469 90.471C132.572 80.4049 130.389 70.2518 125.243 61.53L146.993 48.6992Z" fill="#009BFA" fill-opacity="0.55"/>
<path d="M146.057 47.1569C154.701 61.0068 158.393 77.379 156.528 93.5984C154.664 109.818 147.353 124.925 135.791 136.452L117.962 118.569C125.477 111.077 130.229 101.257 131.441 90.7145C132.653 80.1719 130.254 69.5299 124.635 60.5275L146.057 47.1569Z" fill="#009BFA"/>
<path d="M190.369 124.209V28.6654H207.43L208.568 44.9684C211.601 39.2813 215.898 34.7948 221.459 31.5089C227.019 28.0966 233.401 26.3905 240.605 26.3905C248.188 26.3905 254.697 27.9071 260.131 30.9402C265.565 33.9733 269.799 38.5862 272.832 44.7788C275.865 50.8451 277.382 58.4911 277.382 67.7168V124.209H258.425V69.6125C258.425 60.7659 256.466 54.0678 252.548 49.5181C248.63 44.9684 242.943 42.6936 235.487 42.6936C230.558 42.6936 226.135 43.8942 222.217 46.2954C218.299 48.5702 215.14 51.9825 212.738 56.5322C210.463 61.0819 209.326 66.6426 209.326 73.2144V124.209H190.369ZM337.27 126.484C328.17 126.484 320.082 124.398 313.005 120.228C305.927 116.057 300.367 110.244 296.323 102.787C292.405 95.3309 290.446 86.6738 290.446 76.8162C290.446 66.7058 292.405 57.9224 296.323 50.4659C300.367 42.8831 305.927 37.0064 313.005 32.8359C320.082 28.539 328.297 26.3905 337.649 26.3905C347.001 26.3905 355.026 28.4758 361.724 32.6463C368.422 36.8169 373.604 42.3776 377.269 49.3285C380.934 56.153 382.767 63.7358 382.767 72.0769C382.767 73.3407 382.703 74.7309 382.577 76.2475C382.577 77.6377 382.514 79.2174 382.387 80.9867H304.284V67.5272H363.809C363.43 59.5653 360.776 53.3727 355.848 48.9494C350.919 44.3997 344.789 42.1248 337.459 42.1248C332.278 42.1248 327.538 43.3254 323.241 45.7267C318.945 48.0015 315.469 51.4138 312.815 55.9635C310.288 60.3868 309.024 66.0107 309.024 72.8352V78.1432C309.024 85.2205 310.288 91.2235 312.815 96.1523C315.469 100.955 318.945 104.62 323.241 107.147C327.538 109.549 332.214 110.749 337.27 110.749C343.336 110.749 348.328 109.422 352.246 106.768C356.163 104.114 359.07 100.512 360.966 95.9628H379.923C378.28 101.776 375.5 107.021 371.582 111.697C367.664 116.247 362.798 119.849 356.985 122.503C351.298 125.157 344.726 126.484 337.27 126.484ZM381.962 124.209L414.948 76.437L381.962 28.6654H402.436L427.459 65.8211L452.672 28.6654H472.956L439.971 76.437L472.956 124.209H452.672L427.459 86.8634L402.436 124.209H381.962ZM478.85 124.209V27.8439H516.57C523.361 27.8439 529.006 28.8993 533.503 31.0102C538.091 33.121 541.533 36.0578 543.827 39.8207C546.122 43.4917 547.269 47.7593 547.269 52.6234C547.269 57.4875 546.214 61.5716 544.103 64.8755C541.992 68.1795 539.193 70.7033 535.705 72.447C532.309 74.1908 528.593 75.2462 524.554 75.6133L526.619 74.099C530.933 74.1908 534.787 75.338 538.183 77.5406C541.671 79.7432 544.424 82.6342 546.443 86.2135C548.462 89.7009 549.472 93.6014 549.472 97.9149C549.472 102.963 548.233 107.505 545.755 111.544C543.368 115.49 539.835 118.61 535.155 120.905C530.474 123.107 524.738 124.209 517.946 124.209H478.85ZM495.37 110.718H515.469C520.883 110.718 525.105 109.433 528.134 106.863C531.162 104.293 532.677 100.714 532.677 96.1253C532.677 91.5365 531.116 87.9113 527.996 85.2498C524.876 82.4965 520.608 81.1199 515.193 81.1199H495.37V110.718ZM495.37 68.5925H514.23C519.553 68.5925 523.591 67.3994 526.344 65.0132C529.097 62.5352 530.474 59.1395 530.474 54.826C530.474 50.6043 529.097 47.3004 526.344 44.9142C523.591 42.4363 519.507 41.1973 514.092 41.1973H495.37V68.5925ZM559.787 124.209V27.8439H576.306V124.209H559.787Z" fill="white"/>
</svg>
