<svg width="24" height="24" viewBox="0 0 24 24" fill="none" xmlns="http://www.w3.org/2000/svg">
<path d="M18.75 3C19.7446 3 20.6984 3.39509 21.4017 4.09835C22.1049 4.80161 22.5 5.75544 22.5 6.75V21.75C22.5 21.8726 22.4699 21.9933 22.4124 22.1016C22.3549 22.2099 22.2718 22.3024 22.1702 22.3711C22.0687 22.4397 21.9518 22.4825 21.8299 22.4956C21.708 22.5086 21.5848 22.4916 21.471 22.446L18.006 21.057L14.541 22.446C14.4078 22.4994 14.262 22.5135 14.121 22.4865L13.983 22.446L10.518 21.057L7.05301 22.446C6.94943 22.4874 6.83791 22.5051 6.7266 22.498C6.61528 22.4908 6.50696 22.4589 6.40954 22.4046C6.31211 22.3503 6.22802 22.2749 6.16341 22.184C6.09879 22.0931 6.05527 21.9889 6.03601 21.879L6.02551 21.75V11.04L4.54801 10.548L1.05301 11.946C0.949427 11.9874 0.837915 12.0051 0.726598 11.998C0.615282 11.9908 0.506965 11.9589 0.409537 11.9046C0.312109 11.8503 0.228024 11.7749 0.163407 11.684C0.0987903 11.5931 0.0552687 11.4889 0.0360127 11.379L0.0255127 11.25V6.75C0.0255127 5.75544 0.420601 4.80161 1.12386 4.09835C1.82712 3.39509 2.78095 3 3.77551 3H18.7755H18.75ZM18.75 4.5H6.75001L6.77851 4.536C7.23301 5.1555 7.50151 5.9205 7.50151 6.756V20.646L10.2165 19.5585C10.3498 19.5051 10.4955 19.491 10.6365 19.518L10.773 19.5585L14.238 20.946L17.718 19.5585C17.8513 19.5051 17.997 19.491 18.138 19.518L18.276 19.5585L20.991 20.646V6.756C20.991 5.586 20.0985 4.626 18.951 4.521L18.735 4.5105L18.75 4.5ZM14.25 13.5C14.4489 13.5 14.6397 13.579 14.7803 13.7197C14.921 13.8603 15 14.0511 15 14.25C15 14.4489 14.921 14.6397 14.7803 14.7803C14.6397 14.921 14.4489 15 14.25 15H9.75001C9.5511 15 9.36033 14.921 9.21968 14.7803C9.07903 14.6397 9.00001 14.4489 9.00001 14.25C9.00001 14.0511 9.07903 13.8603 9.21968 13.7197C9.36033 13.579 9.5511 13.5 9.75001 13.5H14.25ZM18.75 10.5C18.9489 10.5 19.1397 10.579 19.2803 10.7197C19.421 10.8603 19.5 11.0511 19.5 11.25C19.5 11.4489 19.421 11.6397 19.2803 11.7803C19.1397 11.921 18.9489 12 18.75 12H9.75001C9.5511 12 9.36033 11.921 9.21968 11.7803C9.07903 11.6397 9.00001 11.4489 9.00001 11.25C9.00001 11.0511 9.07903 10.8603 9.21968 10.7197C9.36033 10.579 9.5511 10.5 9.75001 10.5H18.75ZM3.75001 4.5L3.53401 4.5105C2.97735 4.5637 2.46032 4.82188 2.08334 5.2349C1.70635 5.64792 1.49631 6.18631 1.49401 6.7455V10.1355L4.20901 9.048C4.3318 8.99917 4.4653 8.98365 4.59601 9.003L4.72501 9.033L5.98801 9.453V6.738C5.98801 5.568 5.09551 4.608 3.94801 4.503L3.73201 4.4925L3.75001 4.5ZM18.75 7.5C18.9489 7.5 19.1397 7.57902 19.2803 7.71967C19.421 7.86032 19.5 8.05109 19.5 8.25C19.5 8.44891 19.421 8.63968 19.2803 8.78033C19.1397 8.92098 18.9489 9 18.75 9H9.75001C9.5511 9 9.36033 8.92098 9.21968 8.78033C9.07903 8.63968 9.00001 8.44891 9.00001 8.25C9.00001 8.05109 9.07903 7.86032 9.21968 7.71967C9.36033 7.57902 9.5511 7.5 9.75001 7.5H18.75Z" fill="white"/>
</svg>
