<svg width="24" height="24" viewBox="0 0 24 24" fill="none" xmlns="http://www.w3.org/2000/svg">
<path d="M3.84498 7.92198C3.57316 7.65519 3.3569 7.33719 3.20869 6.98635C3.06048 6.6355 2.98325 6.25877 2.98148 5.8779C2.9797 5.49704 3.0534 5.1196 3.19833 4.76739C3.34326 4.41518 3.55654 4.09517 3.82586 3.82586C4.09517 3.55654 4.41518 3.34326 4.76739 3.19833C5.1196 3.0534 5.49704 2.9797 5.8779 2.98148C6.25877 2.98325 6.6355 3.06048 6.98635 3.20869C7.33719 3.3569 7.65519 3.57316 7.92198 3.84498L20.156 16.078C20.6816 16.6218 20.9726 17.3505 20.9661 18.1068C20.9597 18.8632 20.6564 19.5867 20.1215 20.1215C19.5867 20.6564 18.8632 20.9597 18.1068 20.9661C17.3505 20.9726 16.6218 20.6816 16.078 20.156L3.84498 7.92198Z" stroke="white" stroke-width="1.5"/>
<path d="M6 10L10 6" stroke="white" stroke-width="1.5" stroke-linecap="round"/>
<path d="M16.1 2.30704C16.1353 2.21644 16.1972 2.13861 16.2775 2.08374C16.3577 2.02887 16.4527 1.99951 16.55 1.99951C16.6472 1.99951 16.7422 2.02887 16.8225 2.08374C16.9028 2.13861 16.9646 2.21644 17 2.30704L17.43 3.40204C17.4539 3.46406 17.4904 3.52043 17.5372 3.5676C17.584 3.61476 17.6401 3.65169 17.702 3.67604L18.793 4.10804C18.8833 4.14403 18.9608 4.2063 19.0154 4.28679C19.07 4.36728 19.0991 4.46229 19.0991 4.55954C19.0991 4.6568 19.07 4.75181 19.0154 4.8323C18.9608 4.91279 18.8833 4.97506 18.793 5.01104L17.703 5.44304C17.6416 5.46818 17.5859 5.50526 17.5391 5.55213C17.4922 5.599 17.4551 5.65472 17.43 5.71604L17 6.81004C16.9646 6.90065 16.9028 6.97848 16.8225 7.03335C16.7422 7.08822 16.6472 7.11758 16.55 7.11758C16.4527 7.11758 16.3577 7.08822 16.2775 7.03335C16.1972 6.97848 16.1353 6.90065 16.1 6.81004L15.67 5.71504C15.6448 5.65372 15.6078 5.598 15.5609 5.55113C15.514 5.50426 15.4583 5.46718 15.397 5.44204L14.307 5.01004C14.2166 4.97406 14.1392 4.91179 14.0846 4.8313C14.03 4.75081 14.0008 4.65579 14.0008 4.55854C14.0008 4.46129 14.03 4.36628 14.0846 4.28579C14.1392 4.2053 14.2166 4.14303 14.307 4.10704L15.397 3.67504C15.4584 3.64979 15.5142 3.61256 15.561 3.56551C15.6079 3.51847 15.6449 3.46256 15.67 3.40104L16.1 2.30704ZM19.967 9.13004C20.0023 9.03944 20.0642 8.96161 20.1444 8.90674C20.2247 8.85187 20.3197 8.82251 20.417 8.82251C20.5142 8.82251 20.6092 8.85187 20.6895 8.90674C20.7698 8.96161 20.8316 9.03944 20.867 9.13004L21.023 9.52904C21.073 9.65404 21.171 9.75304 21.296 9.80204L21.694 9.96004C21.784 9.9962 21.8612 10.0585 21.9155 10.1388C21.9698 10.2192 21.9989 10.314 21.9989 10.411C21.9989 10.5081 21.9698 10.6029 21.9155 10.6832C21.8612 10.7636 21.784 10.8259 21.694 10.862L21.296 11.02C21.2346 11.0452 21.1789 11.0823 21.1321 11.1291C21.0852 11.176 21.0481 11.2317 21.023 11.293L20.867 11.693C20.8316 11.7836 20.7698 11.8615 20.6895 11.9163C20.6092 11.9712 20.5142 12.0006 20.417 12.0006C20.3197 12.0006 20.2247 11.9712 20.1444 11.9163C20.0642 11.8615 20.0023 11.7836 19.967 11.693L19.81 11.293C19.7849 11.2318 19.748 11.1761 19.7013 11.1293C19.6546 11.0824 19.5991 11.0453 19.538 11.02L19.14 10.862C19.0499 10.8259 18.9728 10.7636 18.9184 10.6832C18.8641 10.6029 18.8351 10.5081 18.8351 10.411C18.8351 10.314 18.8641 10.2192 18.9184 10.1388C18.9728 10.0585 19.0499 9.9962 19.14 9.96004L19.538 9.80204C19.5991 9.77679 19.6546 9.73966 19.7013 9.6928C19.748 9.64594 19.7849 9.59028 19.81 9.52904L19.967 9.13004ZM5.13297 15.307C5.1683 15.2164 5.23016 15.1386 5.31045 15.0837C5.39074 15.0289 5.48572 14.9995 5.58297 14.9995C5.68022 14.9995 5.77521 15.0289 5.8555 15.0837C5.93579 15.1386 5.99764 15.2164 6.03297 15.307L6.18997 15.707C6.21399 15.7689 6.25056 15.8251 6.29737 15.872C6.34419 15.919 6.40023 15.9558 6.46197 15.98L6.85997 16.137C6.95032 16.173 7.02779 16.2353 7.08237 16.3158C7.13695 16.3963 7.16613 16.4913 7.16613 16.5885C7.16613 16.6858 7.13695 16.7808 7.08237 16.8613C7.02779 16.9418 6.95032 17.0041 6.85997 17.04L6.46197 17.198C6.40023 17.2223 6.34419 17.2591 6.29737 17.306C6.25056 17.353 6.21399 17.4092 6.18997 17.471L6.03297 17.871C5.99764 17.9616 5.93579 18.0395 5.8555 18.0943C5.77521 18.1492 5.68022 18.1786 5.58297 18.1786C5.48572 18.1786 5.39074 18.1492 5.31045 18.0943C5.23016 18.0395 5.1683 17.9616 5.13297 17.871L4.97597 17.471C4.95196 17.4092 4.91539 17.353 4.86857 17.306C4.82176 17.2591 4.76571 17.2223 4.70397 17.198L4.30597 17.04C4.21563 17.0041 4.13815 16.9418 4.08357 16.8613C4.02899 16.7808 3.99982 16.6858 3.99982 16.5885C3.99982 16.4913 4.02899 16.3963 4.08357 16.3158C4.13815 16.2353 4.21563 16.173 4.30597 16.137L4.70397 15.98C4.76581 15.9557 4.82192 15.9188 4.86874 15.8716C4.91556 15.8244 4.95207 15.7681 4.97597 15.706L5.13297 15.307Z" stroke="white"/>
</svg>
